<svg width="15" height="15" viewBox="0 0 15 15" fill="none" xmlns="http://www.w3.org/2000/svg">
<circle cx="7.5" cy="7.5" r="6.75" fill="white" stroke="#0192F8" stroke-width="1.5"/>
<path d="M7.68153 5.016C7.39353 5.016 7.12153 5.052 6.86553 5.124C6.60953 5.196 6.32553 5.312 6.01353 5.472L5.50953 4.116C5.82153 3.916 6.18953 3.764 6.61353 3.66C7.03753 3.548 7.45353 3.492 7.86153 3.492C8.37353 3.492 8.79353 3.56 9.12153 3.696C9.45753 3.832 9.72153 4.004 9.91353 4.212C10.1055 4.42 10.2375 4.648 10.3095 4.896C10.3895 5.144 10.4295 5.38 10.4295 5.604C10.4295 5.828 10.3935 6.036 10.3215 6.228C10.2575 6.412 10.1735 6.584 10.0695 6.744C9.96553 6.904 9.84553 7.056 9.70953 7.2C9.57353 7.344 9.44153 7.48 9.31353 7.608C9.21753 7.704 9.11753 7.808 9.01353 7.92C8.90953 8.024 8.81353 8.136 8.72553 8.256C8.64553 8.376 8.57753 8.504 8.52153 8.64C8.46553 8.768 8.43753 8.9 8.43753 9.036C8.43753 9.068 8.43753 9.116 8.43753 9.18C8.43753 9.244 8.44153 9.3 8.44953 9.348H6.86553C6.84953 9.268 6.83753 9.18 6.82953 9.084C6.82953 8.98 6.82953 8.892 6.82953 8.82C6.82953 8.596 6.85753 8.396 6.91353 8.22C6.96953 8.036 7.04153 7.868 7.12953 7.716C7.22553 7.556 7.33353 7.408 7.45353 7.272C7.57353 7.136 7.69753 7.004 7.82553 6.876C8.00953 6.692 8.17753 6.512 8.32953 6.336C8.48153 6.152 8.55753 5.944 8.55753 5.712C8.55753 5.52 8.48153 5.356 8.32953 5.22C8.18553 5.084 7.96953 5.016 7.68153 5.016ZM8.79753 11.052C8.79753 11.404 8.68153 11.676 8.44953 11.868C8.22553 12.06 7.96953 12.156 7.68153 12.156C7.39353 12.156 7.13353 12.06 6.90153 11.868C6.67753 11.676 6.56553 11.404 6.56553 11.052C6.56553 10.7 6.67753 10.428 6.90153 10.236C7.13353 10.044 7.39353 9.948 7.68153 9.948C7.96953 9.948 8.22553 10.044 8.44953 10.236C8.68153 10.428 8.79753 10.7 8.79753 11.052Z" fill="#0192F8"/>
</svg>
